<svg width="54" height="51" viewBox="0 0 54 51" fill="none" xmlns="http://www.w3.org/2000/svg">
<rect x="0.725098" width="52.5926" height="51" rx="25.5" fill="#FFE7E6"/>
<path d="M35.5892 27.24C35.6959 27.24 35.7812 27.2827 35.8452 27.368C35.9305 27.432 35.9732 27.5173 35.9732 27.624V30.856C35.9732 30.9627 35.9305 31.0587 35.8452 31.144C35.7812 31.208 35.6959 31.24 35.5892 31.24H34.2132C34.1065 31.24 34.0532 31.2933 34.0532 31.4V36.616C34.0532 36.7227 34.0105 36.8187 33.9252 36.904C33.8612 36.968 33.7759 37 33.6692 37H29.9252C29.8185 37 29.7225 36.968 29.6372 36.904C29.5732 36.8187 29.5412 36.7227 29.5412 36.616V31.4C29.5412 31.2933 29.4879 31.24 29.3812 31.24H19.5572C19.4505 31.24 19.3545 31.208 19.2692 31.144C19.2052 31.0587 19.1732 30.9627 19.1732 30.856V28.296C19.1732 28.168 19.2052 28.008 19.2692 27.816L25.0292 14.888C25.1145 14.696 25.2639 14.6 25.4772 14.6H29.4772C29.6265 14.6 29.7225 14.6427 29.7652 14.728C29.8292 14.792 29.8292 14.8987 29.7652 15.048L24.4212 27.048C24.3999 27.0907 24.3999 27.1333 24.4212 27.176C24.4425 27.2187 24.4745 27.24 24.5172 27.24H29.3812C29.4879 27.24 29.5412 27.1867 29.5412 27.08V23.112C29.5412 23.0053 29.5732 22.92 29.6372 22.856C29.7225 22.7707 29.8185 22.728 29.9252 22.728H33.6692C33.7759 22.728 33.8612 22.7707 33.9252 22.856C34.0105 22.92 34.0532 23.0053 34.0532 23.112V27.08C34.0532 27.1867 34.1065 27.24 34.2132 27.24H35.5892Z" fill="#FE0600"/>
</svg>
