<svg width="40" height="40" viewBox="0 0 40 40" fill="none" xmlns="http://www.w3.org/2000/svg">
<path d="M7.75 1.75C7.86643 1.59475 8.01741 1.46875 8.19098 1.38197C8.36455 1.29518 8.55594 1.25 8.75 1.25H31.25C31.4441 1.25 31.6355 1.29518 31.809 1.38197C31.9826 1.46875 32.1336 1.59475 32.25 1.75L39.69 11.685C40.0625 12.1475 40.08 12.81 39.715 13.295L21 38.25C20.8836 38.4052 20.7326 38.5312 20.559 38.618C20.3855 38.7048 20.1941 38.75 20 38.75C19.8059 38.75 19.6146 38.7048 19.441 38.618C19.2674 38.5312 19.1164 38.4052 19 38.25L0.25 13.25C0.0877223 13.0336 0 12.7705 0 12.5C0 12.2295 0.0877223 11.9664 0.25 11.75L7.75 1.75ZM36.215 11.2125L31.7 5.1875L29.76 11.22L36.215 11.2125ZM27.1325 11.2225L29.535 3.75H10.465L12.8725 11.2375L27.1325 11.2225ZM13.675 13.7375L20 33.415L26.33 13.725L13.675 13.7375ZM10.2475 11.24L8.2975 5.185L3.7525 11.2475L10.2475 11.24ZM3.7475 13.75L16.53 30.7925L11.05 13.7425L3.75 13.75H3.7475ZM23.47 30.7925L36.2775 13.7175L28.9575 13.7225L23.47 30.7925Z" fill="#0683D7"/>
</svg>
