<svg width="53" height="51" viewBox="0 0 53 51" fill="none" xmlns="http://www.w3.org/2000/svg">
<rect width="52.5926" height="51" rx="25.5" fill="#E7F3FB"/>
<path d="M25.1438 15.696C25.2504 15.632 25.4104 15.6 25.6238 15.6H29.4958C29.6024 15.6 29.6878 15.6427 29.7517 15.728C29.8371 15.792 29.8798 15.8773 29.8798 15.984V37.616C29.8798 37.7227 29.8371 37.8187 29.7517 37.904C29.6878 37.968 29.6024 38 29.4958 38H25.7518C25.6451 38 25.5491 37.968 25.4638 37.904C25.3998 37.8187 25.3678 37.7227 25.3678 37.616V20.08C25.3678 20.0373 25.3464 19.9947 25.3038 19.952C25.2611 19.9093 25.2184 19.8987 25.1758 19.92L22.0078 20.784L21.8798 20.816C21.6878 20.816 21.5918 20.6987 21.5918 20.464L21.4958 17.712C21.4958 17.4987 21.5918 17.3493 21.7838 17.264L25.1438 15.696Z" fill="#0683D7"/>
</svg>
