<svg width="40" height="40" viewBox="0 0 40 40" fill="none" xmlns="http://www.w3.org/2000/svg">
<path d="M34.755 0.834942C34.8159 0.987588 34.846 1.15074 34.8438 1.31507C34.8416 1.47939 34.807 1.64167 34.7419 1.7926C34.6769 1.94353 34.5828 2.08017 34.4649 2.19468C34.347 2.30919 34.2077 2.39933 34.055 2.45994L28.42 4.71494L27.42 9.53244C28.36 9.76994 29.2075 10.0699 29.85 10.4499C30.42 10.7874 31.25 11.4399 31.25 12.4999C31.25 12.6149 31.24 12.7249 31.2225 12.8299L28.8175 35.4999C28.7793 35.9589 28.6425 36.4043 28.4164 36.8055C28.1903 37.2068 27.8803 37.5545 27.5075 37.8249C26.2875 38.6749 23.7725 39.9999 19.9825 39.9999C16.1925 39.9999 13.6775 38.6749 12.4575 37.8249C12.0847 37.5545 11.7746 37.2068 11.5485 36.8055C11.3224 36.4043 11.1856 35.9589 11.1475 35.4999L8.77496 12.8299C8.75729 12.7208 8.74893 12.6105 8.74996 12.4999C8.74996 11.4399 9.57996 10.7874 10.15 10.4499C10.805 10.0649 11.6675 9.75994 12.625 9.51994C14.56 9.03494 17.1675 8.74994 20 8.74994C21.78 8.74994 23.4725 8.86244 24.9625 9.06744L26.1225 3.52994C26.1667 3.3311 26.2588 3.14608 26.3908 2.99096C26.5228 2.83585 26.6907 2.71534 26.88 2.63994L33.13 0.139942C33.4376 0.0166909 33.7816 0.020667 34.0864 0.150996C34.3911 0.281325 34.6316 0.527338 34.755 0.834942ZM24.42 11.5174C22.9538 11.335 21.4775 11.2457 20 11.2499C17.31 11.2499 14.9175 11.5249 13.2325 11.9449C12.6746 12.073 12.1316 12.259 11.6125 12.4999C11.9775 12.6824 12.5175 12.8749 13.2325 13.0549C14.9175 13.4749 17.31 13.7499 20 13.7499C21.4275 13.7499 22.7725 13.6749 23.97 13.5374L24.42 11.5174ZM25.15 15.9074C23.6125 16.1249 21.855 16.2499 20 16.2499C17.1675 16.2499 14.56 15.9649 12.625 15.4799C12.2583 15.3891 11.8955 15.2831 11.5375 15.1624L13.6325 35.2374C13.665 35.5399 13.7825 35.7024 13.8875 35.7749C14.78 36.3974 16.8075 37.4999 19.9825 37.4999C23.1575 37.4999 25.185 36.3974 26.0775 35.7749C26.1825 35.7024 26.3025 35.5399 26.3325 35.2374L28.4625 15.1624C28.1045 15.2831 27.7417 15.389 27.375 15.4799C26.641 15.6594 25.8984 15.8037 25.15 15.9074ZM11.1675 12.2099C11.1675 12.2099 11.175 12.2149 11.18 12.2249L11.1675 12.2099ZM28.8325 12.2099L28.82 12.2249C28.825 12.2149 28.8325 12.2099 28.8325 12.2099ZM28.385 12.4999C27.9006 12.2746 27.3947 12.0987 26.875 11.9749L26.6275 13.0874L26.765 13.0549C27.48 12.8749 28.02 12.6824 28.385 12.4999Z" fill="#0683D7"/>
</svg>
