<svg width="54" height="51" viewBox="0 0 54 51" fill="none" xmlns="http://www.w3.org/2000/svg">
<rect x="0.483398" width="52.5926" height="51" rx="25.5" fill="#FFF1E9"/>
<path d="M33.1068 26.312C33.5334 27.2933 33.7468 28.424 33.7468 29.704C33.7468 30.856 33.5548 31.9227 33.1708 32.904C32.6588 34.2693 31.7948 35.336 30.5788 36.104C29.3841 36.872 27.9654 37.256 26.3228 37.256C24.7014 37.256 23.2721 36.8507 22.0348 36.04C20.8188 35.2293 19.9441 34.1307 19.4108 32.744C19.1121 31.912 18.9414 31.016 18.8988 30.056C18.8988 29.8 19.0268 29.672 19.2828 29.672H23.0588C23.3148 29.672 23.4428 29.8 23.4428 30.056C23.5281 30.76 23.6454 31.2827 23.7948 31.624C23.9868 32.1787 24.2961 32.616 24.7228 32.936C25.1708 33.2347 25.6934 33.384 26.2908 33.384C27.4854 33.384 28.3068 32.8613 28.7548 31.816C29.0534 31.176 29.2028 30.4293 29.2028 29.576C29.2028 28.5733 29.0428 27.752 28.7228 27.112C28.2321 26.1093 27.4108 25.608 26.2588 25.608C26.0241 25.608 25.7788 25.6827 25.5228 25.832C25.2668 25.96 24.9574 26.152 24.5948 26.408C24.5094 26.472 24.4241 26.504 24.3388 26.504C24.2108 26.504 24.1148 26.44 24.0508 26.312L22.1628 23.656C22.1201 23.592 22.0988 23.5173 22.0988 23.432C22.0988 23.304 22.1414 23.1973 22.2268 23.112L27.3148 18.664C27.3574 18.6213 27.3681 18.5787 27.3468 18.536C27.3468 18.4933 27.3148 18.472 27.2508 18.472H19.7308C19.6241 18.472 19.5281 18.44 19.4428 18.376C19.3788 18.2907 19.3468 18.1947 19.3468 18.088V14.984C19.3468 14.8773 19.3788 14.792 19.4428 14.728C19.5281 14.6427 19.6241 14.6 19.7308 14.6H33.0748C33.1814 14.6 33.2668 14.6427 33.3308 14.728C33.4161 14.792 33.4588 14.8773 33.4588 14.984V18.504C33.4588 18.6747 33.3841 18.8347 33.2348 18.984L29.0428 22.824C29.0001 22.8667 28.9788 22.9093 28.9788 22.952C29.0001 22.9947 29.0534 23.016 29.1388 23.016C30.9948 23.3787 32.3174 24.4773 33.1068 26.312Z" fill="#F9701D"/>
</svg>
