<svg width="53" height="51" viewBox="0 0 53 51" fill="none" xmlns="http://www.w3.org/2000/svg">
<rect x="0.241699" width="52.5926" height="51" rx="25.5" fill="#FEF9EB"/>
<path d="M25.0234 32.936C24.9807 32.9787 24.97 33.0213 24.9914 33.064C25.0127 33.1067 25.0554 33.128 25.1194 33.128H33.7914C33.8981 33.128 33.9834 33.1707 34.0474 33.256C34.1327 33.32 34.1754 33.4053 34.1754 33.512V36.616C34.1754 36.7227 34.1327 36.8187 34.0474 36.904C33.9834 36.968 33.8981 37 33.7914 37H19.3914C19.2847 37 19.1887 36.968 19.1034 36.904C19.0394 36.8187 19.0074 36.7227 19.0074 36.616V33.672C19.0074 33.48 19.0714 33.32 19.1994 33.192C20.2447 32.168 21.3114 31.0587 22.3994 29.864C23.4874 28.648 24.17 27.8907 24.4474 27.592C25.0447 26.888 25.6527 26.216 26.2714 25.576C28.2127 23.4213 29.1834 21.8213 29.1834 20.776C29.1834 20.0293 28.9167 19.4213 28.3834 18.952C27.8501 18.4613 27.1567 18.216 26.3034 18.216C25.45 18.216 24.7567 18.4613 24.2234 18.952C23.69 19.4213 23.4234 20.0507 23.4234 20.84V21.64C23.4234 21.7467 23.3807 21.8427 23.2954 21.928C23.2314 21.992 23.146 22.024 23.0394 22.024H19.2634C19.1567 22.024 19.0607 21.992 18.9754 21.928C18.9114 21.8427 18.8794 21.7467 18.8794 21.64V20.136C18.9434 18.984 19.306 17.9707 19.9674 17.096C20.6287 16.2 21.5034 15.5173 22.5914 15.048C23.7007 14.5787 24.938 14.344 26.3034 14.344C27.818 14.344 29.1301 14.632 30.2394 15.208C31.3701 15.7627 32.2341 16.52 32.8314 17.48C33.4501 18.44 33.7594 19.5067 33.7594 20.68C33.7594 21.576 33.5354 22.4933 33.0874 23.432C32.6394 24.3707 31.9674 25.384 31.0714 26.472C30.4101 27.304 29.6954 28.1253 28.9274 28.936C28.1594 29.7467 27.018 30.92 25.5034 32.456L25.0234 32.936Z" fill="#F4BC31"/>
</svg>
