<svg width="22" height="22" viewBox="0 0 22 22" fill="none" xmlns="http://www.w3.org/2000/svg">
<rect x="0.5" y="0.727051" width="21" height="20" rx="2.5" fill="#F4F5F7"/>
<rect x="0.5" y="0.727051" width="21" height="20" rx="2.5" stroke="#E9ECF1"/>
<path d="M16.25 7.72702C16.25 7.32919 16.092 6.94766 15.8107 6.66636C15.5294 6.38505 15.1478 6.22702 14.75 6.22702H14.375V5.86256C14.375 5.66077 14.2198 5.48756 14.018 5.47749C13.9673 5.47504 13.9167 5.48292 13.8691 5.50064C13.8215 5.51836 13.7781 5.54555 13.7413 5.58057C13.7046 5.61559 13.6753 5.6577 13.6553 5.70436C13.6353 5.75102 13.625 5.80125 13.625 5.85202V6.22702H8.375V5.86256C8.375 5.66077 8.21984 5.48756 8.01805 5.47749C7.96734 5.47504 7.91667 5.48292 7.8691 5.50064C7.82153 5.51836 7.77806 5.54555 7.74131 5.58057C7.70456 5.61559 7.6753 5.6577 7.65531 5.70436C7.63532 5.75102 7.625 5.80125 7.625 5.85202V6.22702H7.25C6.85218 6.22702 6.47064 6.38505 6.18934 6.66636C5.90804 6.94766 5.75 7.32919 5.75 7.72702V8.00827C5.75 8.03313 5.75988 8.05698 5.77746 8.07456C5.79504 8.09214 5.81889 8.10202 5.84375 8.10202H16.1562C16.1811 8.10202 16.205 8.09214 16.2225 8.07456C16.2401 8.05698 16.25 8.03313 16.25 8.00827V7.72702ZM5.75 14.477C5.75 14.8748 5.90804 15.2564 6.18934 15.5377C6.47064 15.819 6.85218 15.977 7.25 15.977H14.75C15.1478 15.977 15.5294 15.819 15.8107 15.5377C16.092 15.2564 16.25 14.8748 16.25 14.477V8.92233C16.25 8.90368 16.2426 8.8858 16.2294 8.87261C16.2162 8.85942 16.1983 8.85202 16.1797 8.85202H5.82031C5.80166 8.85202 5.78378 8.85942 5.77059 8.87261C5.75741 8.8858 5.75 8.90368 5.75 8.92233V14.477ZM13.8125 9.60202C13.9238 9.60202 14.0325 9.63501 14.125 9.69681C14.2175 9.75862 14.2896 9.84647 14.3322 9.94926C14.3748 10.052 14.3859 10.1651 14.3642 10.2743C14.3425 10.3834 14.2889 10.4836 14.2102 10.5623C14.1316 10.6409 14.0314 10.6945 13.9222 10.7162C13.8131 10.7379 13.7 10.7268 13.5972 10.6842C13.4945 10.6416 13.4066 10.5695 13.3448 10.477C13.283 10.3845 13.25 10.2758 13.25 10.1645C13.25 10.0153 13.3093 9.87226 13.4148 9.76677C13.5202 9.66128 13.6633 9.60202 13.8125 9.60202ZM13.8125 11.477C13.9238 11.477 14.0325 11.51 14.125 11.5718C14.2175 11.6336 14.2896 11.7215 14.3322 11.8243C14.3748 11.927 14.3859 12.0401 14.3642 12.1493C14.3425 12.2584 14.2889 12.3586 14.2102 12.4373C14.1316 12.5159 14.0314 12.5695 13.9222 12.5912C13.8131 12.6129 13.7 12.6018 13.5972 12.5592C13.4945 12.5166 13.4066 12.4445 13.3448 12.352C13.283 12.2595 13.25 12.1508 13.25 12.0395C13.25 11.8903 13.3093 11.7473 13.4148 11.6418C13.5202 11.5363 13.6633 11.477 13.8125 11.477ZM11.9375 9.60202C12.0488 9.60202 12.1575 9.63501 12.25 9.69681C12.3425 9.75862 12.4146 9.84647 12.4572 9.94926C12.4998 10.052 12.5109 10.1651 12.4892 10.2743C12.4675 10.3834 12.4139 10.4836 12.3352 10.5623C12.2566 10.6409 12.1564 10.6945 12.0472 10.7162C11.9381 10.7379 11.825 10.7268 11.7222 10.6842C11.6195 10.6416 11.5316 10.5695 11.4698 10.477C11.408 10.3845 11.375 10.2758 11.375 10.1645C11.375 10.0153 11.4343 9.87226 11.5398 9.76677C11.6452 9.66128 11.7883 9.60202 11.9375 9.60202ZM11.9375 11.477C12.0488 11.477 12.1575 11.51 12.25 11.5718C12.3425 11.6336 12.4146 11.7215 12.4572 11.8243C12.4998 11.927 12.5109 12.0401 12.4892 12.1493C12.4675 12.2584 12.4139 12.3586 12.3352 12.4373C12.2566 12.5159 12.1564 12.5695 12.0472 12.5912C11.9381 12.6129 11.825 12.6018 11.7222 12.5592C11.6195 12.5166 11.5316 12.4445 11.4698 12.352C11.408 12.2595 11.375 12.1508 11.375 12.0395C11.375 11.8903 11.4343 11.7473 11.5398 11.6418C11.6452 11.5363 11.7883 11.477 11.9375 11.477ZM11.9375 13.352C12.0488 13.352 12.1575 13.385 12.25 13.4468C12.3425 13.5086 12.4146 13.5965 12.4572 13.6993C12.4998 13.802 12.5109 13.9151 12.4892 14.0243C12.4675 14.1334 12.4139 14.2336 12.3352 14.3123C12.2566 14.3909 12.1564 14.4445 12.0472 14.4662C11.9381 14.4879 11.825 14.4768 11.7222 14.4342C11.6195 14.3916 11.5316 14.3195 11.4698 14.227C11.408 14.1345 11.375 14.0258 11.375 13.9145C11.375 13.7653 11.4343 13.6223 11.5398 13.5168C11.6452 13.4113 11.7883 13.352 11.9375 13.352ZM10.0625 11.477C10.1738 11.477 10.2825 11.51 10.375 11.5718C10.4675 11.6336 10.5396 11.7215 10.5822 11.8243C10.6248 11.927 10.6359 12.0401 10.6142 12.1493C10.5925 12.2584 10.5389 12.3586 10.4602 12.4373C10.3816 12.5159 10.2814 12.5695 10.1722 12.5912C10.0631 12.6129 9.95002 12.6018 9.84724 12.5592C9.74446 12.5166 9.65661 12.4445 9.5948 12.352C9.53299 12.2595 9.5 12.1508 9.5 12.0395C9.5 11.8903 9.55926 11.7473 9.66475 11.6418C9.77024 11.5363 9.91332 11.477 10.0625 11.477ZM10.0625 13.352C10.1738 13.352 10.2825 13.385 10.375 13.4468C10.4675 13.5086 10.5396 13.5965 10.5822 13.6993C10.6248 13.802 10.6359 13.9151 10.6142 14.0243C10.5925 14.1334 10.5389 14.2336 10.4602 14.3123C10.3816 14.3909 10.2814 14.4445 10.1722 14.4662C10.0631 14.4879 9.95002 14.4768 9.84724 14.4342C9.74446 14.3916 9.65661 14.3195 9.5948 14.227C9.53299 14.1345 9.5 14.0258 9.5 13.9145C9.5 13.7653 9.55926 13.6223 9.66475 13.5168C9.77024 13.4113 9.91332 13.352 10.0625 13.352ZM8.1875 11.477C8.29875 11.477 8.40751 11.51 8.50001 11.5718C8.59251 11.6336 8.66461 11.7215 8.70718 11.8243C8.74976 11.927 8.7609 12.0401 8.73919 12.1493C8.71749 12.2584 8.66391 12.3586 8.58525 12.4373C8.50658 12.5159 8.40635 12.5695 8.29724 12.5912C8.18812 12.6129 8.07502 12.6018 7.97224 12.5592C7.86946 12.5166 7.78161 12.4445 7.7198 12.352C7.65799 12.2595 7.625 12.1508 7.625 12.0395C7.625 11.8903 7.68426 11.7473 7.78975 11.6418C7.89524 11.5363 8.03832 11.477 8.1875 11.477ZM8.1875 13.352C8.29875 13.352 8.40751 13.385 8.50001 13.4468C8.59251 13.5086 8.66461 13.5965 8.70718 13.6993C8.74976 13.802 8.7609 13.9151 8.73919 14.0243C8.71749 14.1334 8.66391 14.2336 8.58525 14.3123C8.50658 14.3909 8.40635 14.4445 8.29724 14.4662C8.18812 14.4879 8.07502 14.4768 7.97224 14.4342C7.86946 14.3916 7.78161 14.3195 7.7198 14.227C7.65799 14.1345 7.625 14.0258 7.625 13.9145C7.625 13.7653 7.68426 13.6223 7.78975 13.5168C7.89524 13.4113 8.03832 13.352 8.1875 13.352Z" fill="#717998"/>
</svg>
