<svg width="22" height="22" viewBox="0 0 22 22" fill="none" xmlns="http://www.w3.org/2000/svg">
<rect x="0.5" y="0.727051" width="21" height="20" rx="2.5" fill="#F4F5F7"/>
<rect x="0.5" y="0.727051" width="21" height="20" rx="2.5" stroke="#E9ECF1"/>
<path d="M11 5.4458C8.08338 5.4458 5.71875 7.81043 5.71875 10.7271C5.71875 13.6391 8.0882 16.0083 11 16.0083C13.9164 16.0083 16.2812 13.6434 16.2812 10.7271C16.2812 7.815 13.9121 5.4458 11 5.4458ZM13.7422 11.5396H10.6953C10.6684 11.5396 10.6425 11.5289 10.6235 11.5098C10.6045 11.4908 10.5938 11.4649 10.5938 11.438V7.17236C10.5938 7.14543 10.6045 7.11959 10.6235 7.10055C10.6425 7.0815 10.6684 7.0708 10.6953 7.0708H11.3047C11.3316 7.0708 11.3575 7.0815 11.3765 7.10055C11.3955 7.11959 11.4062 7.14543 11.4062 7.17236V10.7271H13.7422C13.7691 10.7271 13.795 10.7378 13.814 10.7568C13.833 10.7758 13.8438 10.8017 13.8438 10.8286V11.438C13.8438 11.4649 13.833 11.4908 13.814 11.5098C13.795 11.5289 13.7691 11.5396 13.7422 11.5396Z" fill="#717998"/>
</svg>
