<svg width="22" height="21" viewBox="0 0 22 21" fill="none" xmlns="http://www.w3.org/2000/svg">
<rect x="0.5" y="0.727051" width="21" height="19" rx="2.5" fill="#F4F5F7"/>
<rect x="0.5" y="0.727051" width="21" height="19" rx="2.5" stroke="#E9ECF1"/>
<path d="M12.7964 5.74064C12.3403 5.24822 11.7033 4.97705 11.0001 4.97705C10.2933 4.97705 9.65412 5.24658 9.20013 5.73596C8.74123 6.23072 8.51763 6.90314 8.57013 7.62924C8.6742 9.06174 9.76427 10.2271 11.0001 10.2271C12.236 10.2271 13.3242 9.06197 13.4299 7.62971C13.4831 6.91018 13.2581 6.23916 12.7964 5.74064ZM15.1251 15.477H6.87513C6.76715 15.4785 6.66021 15.4558 6.56209 15.4106C6.46398 15.3655 6.37716 15.2991 6.30795 15.2162C6.1556 15.0341 6.0942 14.7854 6.13967 14.5339C6.33748 13.4366 6.95482 12.5148 7.92513 11.8677C8.78717 11.2932 9.87912 10.9771 11.0001 10.9771C12.1212 10.9771 13.2131 11.2935 14.0751 11.8677C15.0454 12.5146 15.6628 13.4363 15.8606 14.5337C15.9061 14.7852 15.8447 15.0338 15.6923 15.216C15.6231 15.2989 15.5363 15.3654 15.4382 15.4105C15.3401 15.4557 15.2331 15.4784 15.1251 15.477Z" fill="#717998"/>
</svg>
