<svg width="18" height="18" viewBox="0 0 18 18" fill="none" xmlns="http://www.w3.org/2000/svg">
<path d="M16.875 4.50001C16.875 3.90327 16.6379 3.33098 16.216 2.90902C15.794 2.48706 15.2217 2.25001 14.625 2.25001H14.0625V1.70333C14.0625 1.40063 13.8298 1.14083 13.5271 1.12571C13.451 1.12205 13.375 1.13386 13.3037 1.16044C13.2323 1.18702 13.1671 1.22781 13.112 1.28034C13.0568 1.33287 13.0129 1.39604 12.983 1.46603C12.953 1.53602 12.9375 1.61137 12.9375 1.68751V2.25001H5.0625V1.70333C5.0625 1.40063 4.82977 1.14083 4.52707 1.12571C4.45102 1.12205 4.37501 1.13386 4.30365 1.16044C4.2323 1.18702 4.16708 1.22781 4.11196 1.28034C4.05684 1.33287 4.01295 1.39604 3.98296 1.46603C3.95297 1.53602 3.93751 1.61137 3.9375 1.68751V2.25001H3.375C2.77826 2.25001 2.20597 2.48706 1.78401 2.90902C1.36205 3.33098 1.125 3.90327 1.125 4.50001V4.92188C1.125 4.95918 1.13982 4.99495 1.16619 5.02132C1.19256 5.04769 1.22833 5.06251 1.26562 5.06251H16.7344C16.7717 5.06251 16.8074 5.04769 16.8338 5.02132C16.8602 4.99495 16.875 4.95918 16.875 4.92188V4.50001ZM1.125 14.625C1.125 15.2217 1.36205 15.794 1.78401 16.216C2.20597 16.638 2.77826 16.875 3.375 16.875H14.625C15.2217 16.875 15.794 16.638 16.216 16.216C16.6379 15.794 16.875 15.2217 16.875 14.625V6.29298C16.875 6.26501 16.8639 6.23818 16.8441 6.2184C16.8243 6.19862 16.7975 6.18751 16.7695 6.18751H1.23047C1.2025 6.18751 1.17567 6.19862 1.15589 6.2184C1.13611 6.23818 1.125 6.26501 1.125 6.29298V14.625ZM13.2188 7.31251C13.3856 7.31251 13.5488 7.36199 13.6875 7.45471C13.8263 7.54742 13.9344 7.6792 13.9983 7.83337C14.0621 7.98755 14.0788 8.1572 14.0463 8.32087C14.0137 8.48454 13.9334 8.63488 13.8154 8.75288C13.6974 8.87088 13.547 8.95124 13.3834 8.9838C13.2197 9.01635 13.05 8.99964 12.8959 8.93578C12.7417 8.87192 12.6099 8.76378 12.5172 8.62502C12.4245 8.48627 12.375 8.32314 12.375 8.15626C12.375 7.93248 12.4639 7.71787 12.6221 7.55964C12.7804 7.4014 12.995 7.31251 13.2188 7.31251ZM13.2188 10.125C13.3856 10.125 13.5488 10.1745 13.6875 10.2672C13.8263 10.3599 13.9344 10.4917 13.9983 10.6459C14.0621 10.8 14.0788 10.9697 14.0463 11.1334C14.0137 11.297 13.9334 11.4474 13.8154 11.5654C13.6974 11.6834 13.547 11.7637 13.3834 11.7963C13.2197 11.8289 13.05 11.8121 12.8959 11.7483C12.7417 11.6844 12.6099 11.5763 12.5172 11.4375C12.4245 11.2988 12.375 11.1356 12.375 10.9688C12.375 10.745 12.4639 10.5304 12.6221 10.3721C12.7804 10.2139 12.995 10.125 13.2188 10.125ZM10.4062 7.31251C10.5731 7.31251 10.7363 7.36199 10.875 7.45471C11.0138 7.54742 11.1219 7.6792 11.1858 7.83337C11.2496 7.98755 11.2663 8.1572 11.2338 8.32087C11.2012 8.48454 11.1209 8.63488 11.0029 8.75288C10.8849 8.87088 10.7345 8.95124 10.5709 8.9838C10.4072 9.01635 10.2375 8.99964 10.0834 8.93578C9.92919 8.87192 9.79741 8.76378 9.7047 8.62502C9.61199 8.48627 9.5625 8.32314 9.5625 8.15626C9.5625 7.93248 9.6514 7.71787 9.80963 7.55964C9.96786 7.4014 10.1825 7.31251 10.4062 7.31251ZM10.4062 10.125C10.5731 10.125 10.7363 10.1745 10.875 10.2672C11.0138 10.3599 11.1219 10.4917 11.1858 10.6459C11.2496 10.8 11.2663 10.9697 11.2338 11.1334C11.2012 11.297 11.1209 11.4474 11.0029 11.5654C10.8849 11.6834 10.7345 11.7637 10.5709 11.7963C10.4072 11.8289 10.2375 11.8121 10.0834 11.7483C9.92919 11.6844 9.79741 11.5763 9.7047 11.4375C9.61199 11.2988 9.5625 11.1356 9.5625 10.9688C9.5625 10.745 9.6514 10.5304 9.80963 10.3721C9.96786 10.2139 10.1825 10.125 10.4062 10.125ZM10.4062 12.9375C10.5731 12.9375 10.7363 12.987 10.875 13.0797C11.0138 13.1724 11.1219 13.3042 11.1858 13.4584C11.2496 13.6125 11.2663 13.7822 11.2338 13.9459C11.2012 14.1095 11.1209 14.2599 11.0029 14.3779C10.8849 14.4959 10.7345 14.5762 10.5709 14.6088C10.4072 14.6414 10.2375 14.6246 10.0834 14.5608C9.92919 14.4969 9.79741 14.3888 9.7047 14.25C9.61199 14.1113 9.5625 13.9481 9.5625 13.7813C9.5625 13.5575 9.6514 13.3429 9.80963 13.1846C9.96786 13.0264 10.1825 12.9375 10.4062 12.9375ZM7.59375 10.125C7.76063 10.125 7.92376 10.1745 8.06251 10.2672C8.20127 10.3599 8.30941 10.4917 8.37327 10.6459C8.43713 10.8 8.45384 10.9697 8.42129 11.1334C8.38873 11.297 8.30837 11.4474 8.19037 11.5654C8.07237 11.6834 7.92203 11.7637 7.75836 11.7963C7.59469 11.8289 7.42504 11.8121 7.27086 11.7483C7.11669 11.6844 6.98491 11.5763 6.8922 11.4375C6.79948 11.2988 6.75 11.1356 6.75 10.9688C6.75 10.745 6.83889 10.5304 6.99713 10.3721C7.15536 10.2139 7.36997 10.125 7.59375 10.125ZM7.59375 12.9375C7.76063 12.9375 7.92376 12.987 8.06251 13.0797C8.20127 13.1724 8.30941 13.3042 8.37327 13.4584C8.43713 13.6125 8.45384 13.7822 8.42129 13.9459C8.38873 14.1095 8.30837 14.2599 8.19037 14.3779C8.07237 14.4959 7.92203 14.5762 7.75836 14.6088C7.59469 14.6414 7.42504 14.6246 7.27086 14.5608C7.11669 14.4969 6.98491 14.3888 6.8922 14.25C6.79948 14.1113 6.75 13.9481 6.75 13.7813C6.75 13.5575 6.83889 13.3429 6.99713 13.1846C7.15536 13.0264 7.36997 12.9375 7.59375 12.9375ZM4.78125 10.125C4.94813 10.125 5.11126 10.1745 5.25001 10.2672C5.38877 10.3599 5.49691 10.4917 5.56077 10.6459C5.62463 10.8 5.64134 10.9697 5.60879 11.1334C5.57623 11.297 5.49587 11.4474 5.37787 11.5654C5.25987 11.6834 5.10953 11.7637 4.94586 11.7963C4.78219 11.8289 4.61254 11.8121 4.45836 11.7483C4.30419 11.6844 4.17241 11.5763 4.0797 11.4375C3.98699 11.2988 3.9375 11.1356 3.9375 10.9688C3.9375 10.745 4.02639 10.5304 4.18463 10.3721C4.34286 10.2139 4.55747 10.125 4.78125 10.125ZM4.78125 12.9375C4.94813 12.9375 5.11126 12.987 5.25001 13.0797C5.38877 13.1724 5.49691 13.3042 5.56077 13.4584C5.62463 13.6125 5.64134 13.7822 5.60879 13.9459C5.57623 14.1095 5.49587 14.2599 5.37787 14.3779C5.25987 14.4959 5.10953 14.5762 4.94586 14.6088C4.78219 14.6414 4.61254 14.6246 4.45836 14.5608C4.30419 14.4969 4.17241 14.3888 4.0797 14.25C3.98699 14.1113 3.9375 13.9481 3.9375 13.7813C3.9375 13.5575 4.02639 13.3429 4.18463 13.1846C4.34286 13.0264 4.55747 12.9375 4.78125 12.9375Z" fill="#717998"/>
</svg>
