<svg width="22" height="24" viewBox="0 0 22 24" fill="none" xmlns="http://www.w3.org/2000/svg">
<path d="M11 0.5C4.93466 0.5 0 5.65897 0 12C0 18.341 4.93466 23.5 11 23.5C17.0653 23.5 22 18.341 22 12C22 5.65897 17.0653 0.5 11 0.5ZM16.7248 8.14584L9.61707 16.992C9.5391 17.0891 9.44209 17.1675 9.33259 17.222C9.2231 17.2765 9.10369 17.3057 8.98245 17.3077H8.96817C8.84957 17.3076 8.73231 17.2815 8.62398 17.2311C8.51565 17.1806 8.41869 17.1068 8.33938 17.0147L5.29322 13.4762C5.21586 13.3904 5.15568 13.2893 5.11622 13.1789C5.07676 13.0684 5.05882 12.9509 5.06344 12.8331C5.06807 12.7153 5.09517 12.5996 5.14315 12.4929C5.19114 12.3862 5.25904 12.2907 5.34286 12.2118C5.42669 12.1329 5.52475 12.0724 5.63128 12.0337C5.73781 11.995 5.85066 11.979 5.9632 11.9866C6.07574 11.9941 6.18569 12.0251 6.2866 12.0778C6.38752 12.1304 6.47735 12.2036 6.55082 12.293L8.94596 15.0751L15.4291 7.00801C15.5745 6.83223 15.7803 6.72335 16.0019 6.70489C16.2234 6.68642 16.4431 6.75987 16.6133 6.90935C16.7835 7.05883 16.8906 7.27233 16.9115 7.50371C16.9323 7.73509 16.8653 7.96575 16.7248 8.14584Z" fill="#5BB752"/>
</svg>
