<svg width="24" height="25" viewBox="0 0 24 25" fill="none" xmlns="http://www.w3.org/2000/svg">
<path d="M12 3.11365C6.62391 3.11365 2.25 7.48755 2.25 12.8636C2.25 18.2397 6.62391 22.6136 12 22.6136C17.3761 22.6136 21.75 18.2397 21.75 12.8636C21.75 7.48755 17.3761 3.11365 12 3.11365ZM12 18.1094C11.8146 18.1094 11.6333 18.0544 11.4792 17.9514C11.325 17.8484 11.2048 17.702 11.1339 17.5307C11.0629 17.3594 11.0443 17.1709 11.0805 16.989C11.1167 16.8072 11.206 16.6401 11.3371 16.509C11.4682 16.3779 11.6352 16.2886 11.8171 16.2524C11.999 16.2163 12.1875 16.2348 12.3588 16.3058C12.5301 16.3767 12.6765 16.4969 12.7795 16.6511C12.8825 16.8053 12.9375 16.9865 12.9375 17.1719C12.9375 17.4206 12.8387 17.659 12.6629 17.8348C12.4871 18.0107 12.2486 18.1094 12 18.1094ZM13.0181 8.68052L12.7491 14.3993C12.7491 14.5982 12.67 14.7889 12.5294 14.9296C12.3887 15.0703 12.198 15.1493 11.9991 15.1493C11.8001 15.1493 11.6094 15.0703 11.4687 14.9296C11.3281 14.7889 11.2491 14.5982 11.2491 14.3993L10.98 8.68334V8.68099C10.9741 8.54361 10.9961 8.40646 11.0446 8.2778C11.0931 8.14913 11.1671 8.03162 11.2622 7.93232C11.3574 7.83303 11.4716 7.75401 11.5981 7.70003C11.7245 7.64605 11.8606 7.61823 11.9981 7.61823C12.1356 7.61823 12.2717 7.64605 12.3982 7.70003C12.5246 7.75401 12.6389 7.83303 12.734 7.93232C12.8291 8.03162 12.9032 8.14913 12.9517 8.2778C13.0002 8.40646 13.0221 8.54361 13.0162 8.68099L13.0181 8.68052Z" fill="#0683D7"/>
</svg>
