<svg width="18" height="17" viewBox="0 0 18 17" fill="none" xmlns="http://www.w3.org/2000/svg">
<path fill-rule="evenodd" clip-rule="evenodd" d="M12.7733 1.74888C12.8257 1.79823 12.8672 1.85685 12.8956 1.92139C12.9239 1.98593 12.9385 2.05513 12.9385 2.125C12.9385 2.19488 12.9239 2.26407 12.8956 2.32861C12.8672 2.39316 12.8257 2.45178 12.7733 2.50113L6.4204 8.5L12.7733 14.4989C12.8789 14.5986 12.9382 14.7339 12.9382 14.875C12.9382 15.0161 12.8789 15.1514 12.7733 15.2511C12.6677 15.3509 12.5244 15.4069 12.375 15.4069C12.2257 15.4069 12.0824 15.3509 11.9768 15.2511L5.22678 8.87613C5.17439 8.82678 5.13283 8.76816 5.10448 8.70361C5.07612 8.63907 5.06152 8.56988 5.06152 8.5C5.06152 8.43013 5.07612 8.36093 5.10448 8.29639C5.13283 8.23185 5.17439 8.17323 5.22678 8.12388L11.9768 1.74888C12.029 1.69941 12.0911 1.66015 12.1594 1.63337C12.2278 1.60659 12.301 1.5928 12.375 1.5928C12.449 1.5928 12.5223 1.60659 12.5906 1.63337C12.659 1.66015 12.721 1.69941 12.7733 1.74888Z" fill="#717998"/>
</svg>
