<svg width="40" height="40" viewBox="0 0 40 40" fill="none" xmlns="http://www.w3.org/2000/svg">
<path d="M2.5 5C2.5 4.33696 2.76339 3.70107 3.23223 3.23223C3.70107 2.76339 4.33696 2.5 5 2.5H32.5C33.163 2.5 33.7989 2.76339 34.2678 3.23223C34.7366 3.70107 35 4.33696 35 5V7.5H36.25C37.2446 7.5 38.1984 7.89509 38.9016 8.59835C39.6049 9.30161 40 10.2554 40 11.25V28.75C40 29.7446 39.6049 30.6984 38.9016 31.4017C38.1984 32.1049 37.2446 32.5 36.25 32.5H34.875C34.5868 33.9117 33.8198 35.1805 32.7036 36.0916C31.5875 37.0028 30.1908 37.5003 28.75 37.5H8.75C7.0924 37.5 5.50269 36.8415 4.33058 35.6694C3.15848 34.4973 2.5 32.9076 2.5 31.25V5ZM35 30H36.25C36.5815 30 36.8995 29.8683 37.1339 29.6339C37.3683 29.3995 37.5 29.0815 37.5 28.75V11.25C37.5 10.9185 37.3683 10.6005 37.1339 10.3661C36.8995 10.1317 36.5815 10 36.25 10H35V30ZM32.5 5H5V31.25C5 32.2446 5.39509 33.1984 6.09835 33.9017C6.80161 34.6049 7.75544 35 8.75 35H28.75C29.7446 35 30.6984 34.6049 31.4017 33.9017C32.1049 33.1984 32.5 32.2446 32.5 31.25V5Z" fill="#0683D7"/>
</svg>
