<svg width="40" height="40" viewBox="0 0 40 40" fill="none" xmlns="http://www.w3.org/2000/svg">
<path fill-rule="evenodd" clip-rule="evenodd" d="M12.5 34.0078C12.5 35.2893 13.5388 36.3281 14.8203 36.3281L25.1797 36.3281C26.4612 36.3281 27.5 35.2893 27.5 34.0078L27.5 9.89844C27.5 8.61697 26.4612 7.57812 25.1797 7.57812L14.8203 7.57812C13.5388 7.57812 12.5 8.61697 12.5 9.89844L12.5 34.0078ZM14.8203 38.8281C12.1581 38.8281 10 36.67 10 34.0078L10 9.89844C10 7.23626 12.1581 5.07812 14.8203 5.07812L25.1797 5.07812C27.8419 5.07812 30 7.23625 30 9.89844L30 34.0078C30 36.67 27.8419 38.8281 25.1797 38.8281L14.8203 38.8281Z" fill="#0683D7"/>
<path fill-rule="evenodd" clip-rule="evenodd" d="M15.834 2.57812C15.834 1.88777 16.3936 1.32812 17.084 1.32812L22.9168 1.32812C23.6072 1.32812 24.1668 1.88777 24.1668 2.57812C24.1668 3.26848 23.6072 3.82812 22.9168 3.82812L17.084 3.82812C16.3936 3.82812 15.834 3.26848 15.834 2.57812Z" fill="#0683D7"/>
</svg>
