<svg width="40" height="40" viewBox="0 0 40 40" fill="none" xmlns="http://www.w3.org/2000/svg">
<path d="M15 0C15.3315 0 15.6495 0.131696 15.8839 0.366117C16.1183 0.600537 16.25 0.918479 16.25 1.25V7.5H23.75V1.25C23.75 0.918479 23.8817 0.600537 24.1161 0.366117C24.3505 0.131696 24.6685 0 25 0C25.3315 0 25.6495 0.131696 25.8839 0.366117C26.1183 0.600537 26.25 0.918479 26.25 1.25V7.5H28.75C29.0815 7.5 29.3995 7.6317 29.6339 7.86612C29.8683 8.10054 30 8.41848 30 8.75V16.25C30 18.5706 29.0781 20.7962 27.4372 22.4372C25.7962 24.0781 23.5706 25 21.25 25C21.245 26.085 21.225 27.1125 21.15 28.05C21.0475 29.335 20.835 30.5575 20.3575 31.61C19.8734 32.7231 19.0157 33.6321 17.9325 34.18C16.8125 34.75 15.4225 35 13.75 35C11.255 35 9.725 35.825 8.815 36.795C7.9934 37.6627 7.52457 38.8053 7.5 40H5C5 38.46 5.58 36.5825 6.9925 35.08C8.435 33.55 10.6525 32.5 13.75 32.5C15.2025 32.5 16.155 32.28 16.795 31.9525C17.3975 31.645 17.795 31.2025 18.08 30.5775C18.3825 29.9125 18.5625 29.025 18.655 27.8525C18.7225 27.0025 18.7425 26.0575 18.7475 25C16.4273 24.9993 14.2023 24.0772 12.5619 22.4363C10.9215 20.7954 10 18.5702 10 16.25V8.75C10 8.41848 10.1317 8.10054 10.3661 7.86612C10.6005 7.6317 10.9185 7.5 11.25 7.5H13.75V1.25C13.75 0.918479 13.8817 0.600537 14.1161 0.366117C14.3505 0.131696 14.6685 0 15 0ZM12.5 10V16.25C12.5 17.9076 13.1585 19.4973 14.3306 20.6694C15.5027 21.8415 17.0924 22.5 18.75 22.5H21.25C22.9076 22.5 24.4973 21.8415 25.6694 20.6694C26.8415 19.4973 27.5 17.9076 27.5 16.25V10H12.5Z" fill="#0683D7"/>
</svg>
