<svg width="40" height="40" viewBox="0 0 40 40" fill="none" xmlns="http://www.w3.org/2000/svg">
<path d="M5 5C5 3.67392 5.52678 2.40215 6.46447 1.46447C7.40215 0.526784 8.67392 0 10 0L30 0C31.3261 0 32.5979 0.526784 33.5355 1.46447C34.4732 2.40215 35 3.67392 35 5V35C35 36.3261 34.4732 37.5979 33.5355 38.5355C32.5979 39.4732 31.3261 40 30 40H10C8.67392 40 7.40215 39.4732 6.46447 38.5355C5.52678 37.5979 5 36.3261 5 35V5ZM30 2.5H10C9.33696 2.5 8.70107 2.76339 8.23223 3.23223C7.76339 3.70107 7.5 4.33696 7.5 5V35C7.5 35.663 7.76339 36.2989 8.23223 36.7678C8.70107 37.2366 9.33696 37.5 10 37.5H30C30.663 37.5 31.2989 37.2366 31.7678 36.7678C32.2366 36.2989 32.5 35.663 32.5 35V5C32.5 4.33696 32.2366 3.70107 31.7678 3.23223C31.2989 2.76339 30.663 2.5 30 2.5Z" fill="#0683D7"/>
<path d="M15 12.5C15 11.837 15.2634 11.2011 15.7322 10.7322C16.2011 10.2634 16.837 10 17.5 10H20.47C22.2934 10 24.042 10.7243 25.3314 12.0136C26.6207 13.303 27.345 15.0516 27.345 16.875C27.345 18.6984 26.6207 20.447 25.3314 21.7364C24.042 23.0257 22.2934 23.75 20.47 23.75H17.5V28.75C17.5 29.0815 17.3683 29.3995 17.1339 29.6339C16.8995 29.8683 16.5815 30 16.25 30C15.9185 30 15.6005 29.8683 15.3661 29.6339C15.1317 29.3995 15 29.0815 15 28.75V12.5ZM17.5 21.25H20.47C21.6303 21.25 22.7431 20.7891 23.5636 19.9686C24.3841 19.1481 24.845 18.0353 24.845 16.875C24.845 15.7147 24.3841 14.6019 23.5636 13.7814C22.7431 12.9609 21.6303 12.5 20.47 12.5H17.5V21.25Z" fill="#0683D7"/>
</svg>
