<svg width="40" height="40" viewBox="0 0 40 40" fill="none" xmlns="http://www.w3.org/2000/svg">
<path fill-rule="evenodd" clip-rule="evenodd" d="M24.7785 1.25001C24.9831 1.2493 25.1855 1.29217 25.3723 1.37575C25.559 1.45932 25.7259 1.5817 25.8617 1.73476C25.9975 1.88782 26.0991 2.06803 26.1599 2.26339C26.2206 2.45876 26.2391 2.66483 26.214 2.86791C26.2111 2.89189 26.2074 2.91578 26.2031 2.93955L23.9991 15H32.5C32.9818 15 33.4206 15.2768 33.6281 15.7116C33.8356 16.1464 33.7748 16.6617 33.4718 17.0362L16.348 38.2018C16.2179 38.3674 16.0528 38.5025 15.8643 38.5972C15.6654 38.6972 15.446 38.7495 15.2234 38.75M22.9953 6.58639L10.1193 22.5H17.5C17.8707 22.5 18.2222 22.6645 18.4597 22.9491C18.6972 23.2337 18.7962 23.609 18.7298 23.9737L17.0147 33.4031L29.8808 17.5H22.5C22.1292 17.5 21.7775 17.3353 21.54 17.0505C21.3025 16.7657 21.2037 16.3901 21.2704 16.0253L22.9953 6.58639ZM24.7785 1.25001L6.52826 22.9637C6.22524 23.3383 6.1644 23.8536 6.37189 24.2884C6.57938 24.7231 7.01826 25 7.50001 25H16.0021L13.8085 37.0599L13.8073 37.0664C13.7709 37.273 13.7802 37.485 13.8346 37.6876C13.889 37.8903 13.9872 38.0784 14.1222 38.2389C14.2572 38.3995 14.4258 38.5284 14.6161 38.6167C14.8058 38.7048 15.0125 38.7503 15.2216 38.75" fill="#0683D7"/>
</svg>
