<svg width="39" height="39" viewBox="0 0 39 39" fill="none" xmlns="http://www.w3.org/2000/svg">
<path d="M14.0327 2.61086C14.17 2.69311 14.2898 2.8016 14.3852 2.93016C14.4806 3.05871 14.5498 3.2048 14.5887 3.36007C14.6276 3.51535 14.6356 3.67678 14.6121 3.83514C14.5887 3.99349 14.5342 4.14567 14.4519 4.28299L8.24606 14.6253H30.7539L24.5456 4.28299C24.3795 4.00565 24.3303 3.67368 24.4089 3.3601C24.4876 3.04651 24.6875 2.777 24.9649 2.61086C25.2422 2.44472 25.5742 2.39556 25.8878 2.47418C26.2014 2.5528 26.4709 2.75278 26.637 3.03011L33.5961 14.6253H36.5625C37.209 14.6253 37.829 14.8821 38.2861 15.3392C38.7432 15.7963 39 16.4163 39 17.0628V19.5003C39 20.1468 38.7432 20.7668 38.2861 21.2239C37.829 21.681 37.209 21.9378 36.5625 21.9378V32.9065C36.5625 34.5227 35.9205 36.0727 34.7777 37.2155C33.6349 38.3583 32.0849 39.0003 30.4688 39.0003H8.53125C6.91509 39.0003 5.36512 38.3583 4.22232 37.2155C3.07952 36.0727 2.4375 34.5227 2.4375 32.9065V21.9378C1.79103 21.9378 1.17105 21.681 0.713927 21.2239C0.256807 20.7668 0 20.1468 0 19.5003V17.0628C0 16.4163 0.256807 15.7963 0.713927 15.3392C1.17105 14.8821 1.79103 14.6253 2.4375 14.6253H5.40394L12.3581 3.03011C12.4404 2.89277 12.5489 2.77298 12.6774 2.67757C12.806 2.58217 12.9521 2.51302 13.1073 2.47409C13.2626 2.43516 13.424 2.4272 13.5824 2.45067C13.7408 2.47413 13.8954 2.52857 14.0327 2.61086ZM4.875 21.9378V32.9065C4.875 33.8762 5.26021 34.8062 5.94589 35.4919C6.63157 36.1776 7.56155 36.5628 8.53125 36.5628H30.4688C31.4384 36.5628 32.3684 36.1776 33.0541 35.4919C33.7398 34.8062 34.125 33.8762 34.125 32.9065V21.9378H4.875ZM2.4375 17.0628V19.5003H36.5625V17.0628H2.4375ZM9.75 24.3753C10.0732 24.3753 10.3832 24.5037 10.6118 24.7323C10.8403 24.9608 10.9688 25.2708 10.9688 25.594V32.9065C10.9688 33.2298 10.8403 33.5398 10.6118 33.7683C10.3832 33.9969 10.0732 34.1253 9.75 34.1253C9.42677 34.1253 9.11677 33.9969 8.88821 33.7683C8.65965 33.5398 8.53125 33.2298 8.53125 32.9065V25.594C8.53125 25.2708 8.65965 24.9608 8.88821 24.7323C9.11677 24.5037 9.42677 24.3753 9.75 24.3753ZM14.625 24.3753C14.9482 24.3753 15.2582 24.5037 15.4868 24.7323C15.7153 24.9608 15.8438 25.2708 15.8438 25.594V32.9065C15.8438 33.2298 15.7153 33.5398 15.4868 33.7683C15.2582 33.9969 14.9482 34.1253 14.625 34.1253C14.3018 34.1253 13.9918 33.9969 13.7632 33.7683C13.5347 33.5398 13.4062 33.2298 13.4062 32.9065V25.594C13.4062 25.2708 13.5347 24.9608 13.7632 24.7323C13.9918 24.5037 14.3018 24.3753 14.625 24.3753ZM19.5 24.3753C19.8232 24.3753 20.1332 24.5037 20.3618 24.7323C20.5903 24.9608 20.7188 25.2708 20.7188 25.594V32.9065C20.7188 33.2298 20.5903 33.5398 20.3618 33.7683C20.1332 33.9969 19.8232 34.1253 19.5 34.1253C19.1768 34.1253 18.8668 33.9969 18.6382 33.7683C18.4097 33.5398 18.2812 33.2298 18.2812 32.9065V25.594C18.2812 25.2708 18.4097 24.9608 18.6382 24.7323C18.8668 24.5037 19.1768 24.3753 19.5 24.3753ZM24.375 24.3753C24.6982 24.3753 25.0082 24.5037 25.2368 24.7323C25.4653 24.9608 25.5938 25.2708 25.5938 25.594V32.9065C25.5938 33.2298 25.4653 33.5398 25.2368 33.7683C25.0082 33.9969 24.6982 34.1253 24.375 34.1253C24.0518 34.1253 23.7418 33.9969 23.5132 33.7683C23.2847 33.5398 23.1562 33.2298 23.1562 32.9065V25.594C23.1562 25.2708 23.2847 24.9608 23.5132 24.7323C23.7418 24.5037 24.0518 24.3753 24.375 24.3753ZM29.25 24.3753C29.5732 24.3753 29.8832 24.5037 30.1118 24.7323C30.3403 24.9608 30.4688 25.2708 30.4688 25.594V32.9065C30.4688 33.2298 30.3403 33.5398 30.1118 33.7683C29.8832 33.9969 29.5732 34.1253 29.25 34.1253C28.9268 34.1253 28.6168 33.9969 28.3882 33.7683C28.1597 33.5398 28.0312 33.2298 28.0312 32.9065V25.594C28.0312 25.2708 28.1597 24.9608 28.3882 24.7323C28.6168 24.5037 28.9268 24.3753 29.25 24.3753Z" fill="#0683D7"/>
</svg>
