<svg width="40" height="40" viewBox="0 0 40 40" fill="none" xmlns="http://www.w3.org/2000/svg">
<path d="M34.7551 0.83543C34.816 0.988076 34.8462 1.15123 34.8439 1.31556C34.8417 1.47988 34.8071 1.64216 34.7421 1.79309C34.677 1.94402 34.5829 2.08065 34.465 2.19516C34.3471 2.30967 34.2078 2.39982 34.0551 2.46043L28.4201 4.71543L27.4201 9.53293C28.3601 9.77043 29.2076 10.0704 29.8501 10.4504C30.4201 10.7879 31.2501 11.4404 31.2501 12.5004C31.2501 12.6154 31.2401 12.7254 31.2226 12.8304L28.8176 35.5004C28.7794 35.9594 28.6426 36.4047 28.4165 36.806C28.1904 37.2073 27.8804 37.555 27.5076 37.8254C26.2876 38.6754 23.7726 40.0004 19.9826 40.0004C16.1926 40.0004 13.6776 38.6754 12.4576 37.8254C12.0848 37.555 11.7747 37.2073 11.5487 36.806C11.3226 36.4047 11.1858 35.9594 11.1476 35.5004L8.77509 12.8304C8.75742 12.7213 8.74905 12.6109 8.75009 12.5004C8.75009 11.4404 9.58009 10.7879 10.1501 10.4504C10.8051 10.0654 11.6676 9.76043 12.6251 9.52043C14.5601 9.03543 17.1676 8.75043 20.0001 8.75043C21.7801 8.75043 23.4726 8.86293 24.9626 9.06793L26.1226 3.53043C26.1668 3.33159 26.2589 3.14656 26.3909 2.99145C26.5229 2.83633 26.6909 2.71583 26.8801 2.64043L33.1301 0.14043C33.4377 0.0171792 33.7818 0.0211553 34.0865 0.151484C34.3912 0.281814 34.6317 0.527826 34.7551 0.83543ZM24.4201 11.5179C22.9539 11.3355 21.4776 11.2462 20.0001 11.2504C17.3101 11.2504 14.9176 11.5254 13.2326 11.9454C12.6747 12.0735 12.1318 12.2595 11.6126 12.5004C11.9776 12.6829 12.5176 12.8754 13.2326 13.0554C14.9176 13.4754 17.3101 13.7504 20.0001 13.7504C21.4276 13.7504 22.7726 13.6754 23.9701 13.5379L24.4201 11.5179ZM25.1501 15.9079C23.6126 16.1254 21.8551 16.2504 20.0001 16.2504C17.1676 16.2504 14.5601 15.9654 12.6251 15.4804C12.2584 15.3895 11.8956 15.2836 11.5376 15.1629L13.6326 35.2379C13.6651 35.5404 13.7826 35.7029 13.8876 35.7754C14.7801 36.3979 16.8076 37.5004 19.9826 37.5004C23.1576 37.5004 25.1851 36.3979 26.0776 35.7754C26.1826 35.7029 26.3026 35.5404 26.3326 35.2379L28.4626 15.1629C28.1046 15.2836 27.7418 15.3895 27.3751 15.4804C26.6411 15.6599 25.8985 15.8042 25.1501 15.9079ZM11.1676 12.2104C11.1676 12.2104 11.1751 12.2154 11.1801 12.2254L11.1676 12.2104ZM28.8326 12.2104L28.8201 12.2254C28.8251 12.2154 28.8326 12.2104 28.8326 12.2104ZM28.3851 12.5004C27.9007 12.275 27.3948 12.0992 26.8751 11.9754L26.6276 13.0879L26.7651 13.0554C27.4801 12.8754 28.0201 12.6829 28.3851 12.5004Z" fill="#0683D7"/>
</svg>
