<svg width="40" height="40" viewBox="0 0 40 40" fill="none" xmlns="http://www.w3.org/2000/svg">
<path d="M38.46 15.2875C38.5857 15.1654 38.6835 15.0176 38.7465 14.8541C38.8096 14.6906 38.8365 14.5153 38.8253 14.3405C38.8141 14.1656 38.7652 13.9952 38.6818 13.841C38.5985 13.6869 38.4827 13.5526 38.3425 13.4475C33.0126 9.57241 26.5898 7.48983 20 7.50004C13.1475 7.50004 6.80751 9.70504 1.65751 13.4475C1.51712 13.5525 1.40114 13.6866 1.31757 13.8406C1.234 13.9947 1.18481 14.165 1.17341 14.3399C1.162 14.5148 1.18865 14.69 1.2515 14.8536C1.31436 15.0172 1.41193 15.1653 1.53751 15.2875C1.756 15.5027 2.04377 15.6334 2.34958 15.6563C2.6554 15.6792 2.95942 15.5928 3.20751 15.4125C8.09536 11.885 13.9722 9.99081 20 10C26.2675 10 32.0675 12.005 36.79 15.41C37.3025 15.78 38.015 15.735 38.46 15.2875Z" fill="#0683D7"/>
<path d="M33.0725 20.6775C33.2013 20.5532 33.3008 20.4018 33.3638 20.2343C33.4267 20.0667 33.4516 19.8872 33.4365 19.7088C33.4214 19.5305 33.3668 19.3577 33.2766 19.2031C33.1864 19.0485 33.0629 18.9159 32.915 18.815C29.071 16.318 24.5838 14.9925 20 15C15.2375 15 10.8 16.4 7.08499 18.815C6.93637 18.9153 6.81212 19.0477 6.72136 19.2023C6.6306 19.3569 6.57565 19.5299 6.56054 19.7086C6.54543 19.8873 6.57055 20.067 6.63406 20.2347C6.69756 20.4024 6.79783 20.5537 6.92749 20.6775C7.1405 20.8854 7.41785 21.0148 7.71403 21.0443C8.01021 21.0738 8.30763 21.0018 8.55749 20.84C11.9726 18.6527 15.9445 17.4933 20 17.5C24.0546 17.4938 28.0256 18.6531 31.44 20.84C31.955 21.17 32.64 21.11 33.0725 20.6775ZM27.615 26.135C28.18 25.57 28.0775 24.6225 27.365 24.26C25.0837 23.0991 22.5596 22.496 20 22.5C17.35 22.5 14.845 23.135 12.635 24.26C11.9225 24.6225 11.82 25.57 12.385 26.135L12.4225 26.1725C12.8225 26.5725 13.44 26.6475 13.95 26.3975C15.8331 25.4746 17.9029 24.9965 20 25C22.17 25 24.225 25.5025 26.05 26.4C26.5575 26.65 27.175 26.575 27.575 26.1725L27.615 26.135ZM22.65 31.1C23.14 30.61 23.145 29.8 22.55 29.45C21.7787 28.9909 20.8976 28.7491 20 28.75C19.1024 28.7491 18.2213 28.9909 17.45 29.45C16.855 29.8 16.86 30.61 17.35 31.1L19.115 32.865C19.3494 33.0994 19.6673 33.231 19.9987 33.231C20.3302 33.231 20.6481 33.0994 20.8825 32.865L22.65 31.1Z" fill="#0683D7"/>
</svg>
